<?xml version="1.0" encoding="UTF-8" standalone="no"?>
<!DOCTYPE svg PUBLIC "-//W3C//DTD SVG 1.1//EN" "http://www.w3.org/Graphics/SVG/1.1/DTD/svg11.dtd">
<svg width="100%" height="100%" viewBox="0 0 512 512" version="1.1" xmlns="http://www.w3.org/2000/svg" xmlns:xlink="http://www.w3.org/1999/xlink" xml:space="preserve" xmlns:serif="http://www.serif.com/" style="fill-rule:evenodd;clip-rule:evenodd;stroke-linejoin:round;stroke-miterlimit:2;">
    <path id="Background" d="M54.749,383L54.749,138.101C56.87,138.101 58.651,138.101 60.433,138.101C84.76,138.101 109.088,138.115 133.416,138.093C143.932,138.084 149.383,132.742 149.41,122.125C149.482,93.131 149.435,64.137 149.435,35.144L149.435,29.551L401.624,29.551L401.624,264.251C399.852,264.251 397.936,264.251 396.02,264.251C311.039,264.251 226.058,264.249 141.077,264.253C130.7,264.254 125.056,267.918 123.316,275.905C122.932,277.668 122.968,279.542 122.967,281.365C122.95,334.353 122.95,387.342 122.956,440.33C122.958,452.106 128.143,457.268 140.05,457.27C225.198,457.282 310.346,457.276 395.494,457.276C397.464,457.276 399.434,457.276 401.699,457.276L401.699,484.472L54.749,484.472L54.749,383Z" style="fill:rgb(254,254,254);fill-rule:nonzero;"/>
    <rect id="Label-Background" serif:id="Label Background" x="151.426" y="292.913" width="307.609" height="136.076" style="fill:rgb(253,253,253);fill-rule:nonzero;"/>
    <path id="Page-Fold" serif:id="Page Fold" d="M121.257,76L121.257,109.642L71.858,109.642C88.349,90.746 104.336,72.427 121.257,53.039C121.257,61.397 121.257,68.449 121.257,76Z" style="fill:rgb(251,251,251);fill-rule:nonzero;"/>
    <path id="Outline" d="M419,513C291.978,513 164.956,513 37.302,512.703C29.536,509.427 26.555,504.207 26.605,496.363C26.824,462.395 26.698,428.424 26.698,394.454C26.698,305.532 26.723,216.61 26.639,127.688C26.633,122.131 27.631,117.27 31.401,112.963C61.447,78.645 91.357,44.208 121.51,9.985C124.67,6.4 129.139,3.967 133,1C228.022,1 323.044,1 418.713,1.301C427.523,4.377 430.207,8.34 430.208,17.839C430.217,97.669 430.214,177.5 430.214,257.33C430.214,259.444 430.214,261.558 430.214,264.184C432.651,264.184 434.445,264.184 436.24,264.184C447.906,264.185 459.573,264.096 471.238,264.213C481.792,264.319 487.269,269.569 487.278,279.679C487.326,333.844 487.326,388.008 487.275,442.173C487.266,451.946 481.913,457.144 472.059,457.195C459.893,457.259 447.724,457.36 435.562,457.131C431.537,457.056 430,458.057 430.118,462.367C430.411,473.025 429.806,483.717 430.338,494.357C430.795,503.485 427.704,509.776 419,513M54.749,383.5L54.749,484.472L401.699,484.472L401.699,457.276C399.434,457.276 397.464,457.276 395.494,457.276C310.346,457.276 225.198,457.282 140.05,457.27C128.143,457.268 122.958,452.106 122.956,440.33C122.95,387.342 122.95,334.353 122.967,281.365C122.968,279.542 122.932,277.668 123.316,275.905C125.056,267.918 130.7,264.254 141.077,264.253C226.058,264.249 311.039,264.251 396.02,264.251C397.936,264.251 399.852,264.251 401.624,264.251L401.624,29.551L149.435,29.551C149.435,31.575 149.435,33.359 149.435,35.144C149.435,64.137 149.482,93.131 149.41,122.125C149.383,132.742 143.932,138.084 133.416,138.093C109.088,138.115 84.76,138.101 60.433,138.101C58.651,138.101 56.87,138.101 54.749,138.101C54.749,219.925 54.749,301.212 54.749,383.5M273.5,428.989L459.035,428.989L459.035,292.913L151.426,292.913L151.426,428.989L273.5,428.989M121.257,75.5L121.257,53.039C104.336,72.427 88.349,90.746 71.858,109.642L121.257,109.642C121.257,98.423 121.257,87.462 121.257,75.5Z" style="fill:rgb(1,1,1);fill-rule:nonzero;"/>
    <g id="Line-1" serif:id="Line 1" transform="matrix(0.614309,0,0,1.8969,80.2487,-46.8334)">
        <path d="M348.758,82.563C348.758,78.23 337.896,74.712 324.517,74.712L227.862,74.712C214.484,74.712 203.622,78.23 203.622,82.563C203.622,86.895 214.484,90.413 227.862,90.413L324.517,90.413C337.896,90.413 348.758,86.895 348.758,82.563Z" style="fill:rgb(186,64,64);"/>
        <path d="M348.758,82.563C348.758,86.895 337.896,90.413 324.517,90.413L227.862,90.413C214.484,90.413 203.622,86.895 203.622,82.563C203.622,78.23 214.484,74.712 227.862,74.712L324.517,74.712C337.896,74.712 348.758,78.23 348.758,82.563ZM340.618,82.563C340.618,79.685 333.404,77.348 324.517,77.348L227.862,77.348C218.976,77.348 211.761,79.685 211.761,82.563C211.761,85.44 218.976,87.777 227.862,87.777L324.517,87.777C333.404,87.777 340.618,85.44 340.618,82.563Z"/>
    </g>
    <g id="Line-1-INFO" serif:id="Line 1 INFO" transform="matrix(0.352,0,0,1.8969,231.149,-46.8334)">
        <path d="M348.758,82.563C348.758,78.23 329.802,74.712 306.454,74.712L245.926,74.712C222.578,74.712 203.622,78.23 203.622,82.563C203.622,86.895 222.578,90.413 245.926,90.413L306.454,90.413C329.802,90.413 348.758,86.895 348.758,82.563Z"/>
    </g>
    <g id="Line-2" serif:id="Line 2" transform="matrix(0.691425,0,0,1.8969,112.772,7.0101)">
        <path d="M348.758,82.563C348.758,78.23 339.107,74.712 327.221,74.712L225.159,74.712C213.272,74.712 203.622,78.23 203.622,82.563C203.622,86.895 213.272,90.413 225.159,90.413L327.221,90.413C339.107,90.413 348.758,86.895 348.758,82.563Z" style="fill:rgb(102,210,88);"/>
        <path d="M348.758,82.563C348.758,86.895 339.107,90.413 327.221,90.413L225.159,90.413C213.272,90.413 203.622,86.895 203.622,82.563C203.622,78.23 213.272,74.712 225.159,74.712L327.221,74.712C339.107,74.712 348.758,78.23 348.758,82.563ZM341.526,82.563C341.526,79.685 335.116,77.348 327.221,77.348L225.159,77.348C217.263,77.348 210.853,79.685 210.853,82.563C210.853,85.44 217.263,87.777 225.159,87.777L327.221,87.777C335.116,87.777 341.526,85.44 341.526,82.563Z"/>
    </g>
    <g id="Line-2-ERROR" serif:id="Line 2 ERROR" transform="matrix(0.270232,0,0,1.8969,150.31,7.0101)">
        <path d="M348.758,82.563C348.758,78.23 324.066,74.712 293.653,74.712L258.726,74.712C228.313,74.712 203.622,78.23 203.622,82.563C203.622,86.895 228.313,90.413 258.726,90.413L293.653,90.413C324.066,90.413 348.758,86.895 348.758,82.563Z"/>
    </g>
    <g id="Line-3" serif:id="Line 3" transform="matrix(1.0237,0,0,1.8969,-3.11323,60.9505)">
        <path d="M348.758,82.563C348.758,78.23 342.24,74.712 334.211,74.712L218.168,74.712C210.14,74.712 203.622,78.23 203.622,82.563C203.622,86.895 210.14,90.413 218.168,90.413L334.211,90.413C342.24,90.413 348.758,86.895 348.758,82.563Z"/>
    </g>
    <g transform="matrix(1,0,0,1,17.5213,8.054)">
        <g transform="matrix(126.237,0,0,126.237,168.283,398.079)">
            <path d="M0.543,-0.596L0.385,-0.596L0.385,-0.076C0.385,-0.046 0.378,-0.024 0.365,-0.01C0.351,0.005 0.334,0.012 0.313,0.012C0.292,0.012 0.274,0.005 0.26,-0.01C0.247,-0.024 0.24,-0.047 0.24,-0.076L0.24,-0.596L0.082,-0.596C0.057,-0.596 0.039,-0.602 0.027,-0.613C0.015,-0.623 0.009,-0.638 0.009,-0.656C0.009,-0.674 0.015,-0.689 0.028,-0.7C0.04,-0.71 0.058,-0.716 0.082,-0.716L0.543,-0.716C0.568,-0.716 0.587,-0.71 0.599,-0.699C0.611,-0.688 0.617,-0.674 0.617,-0.656C0.617,-0.638 0.611,-0.623 0.599,-0.613C0.586,-0.602 0.568,-0.596 0.543,-0.596Z" style="fill-rule:nonzero;"/>
        </g>
        <g transform="matrix(126.237,0,0,126.237,247.181,398.079)">
            <path d="M0.052,-0.139L0.212,-0.373L0.077,-0.581C0.064,-0.601 0.055,-0.619 0.049,-0.633C0.042,-0.648 0.039,-0.661 0.039,-0.675C0.039,-0.688 0.045,-0.701 0.057,-0.712C0.07,-0.723 0.084,-0.728 0.102,-0.728C0.122,-0.728 0.138,-0.722 0.149,-0.71C0.16,-0.698 0.176,-0.676 0.196,-0.644L0.303,-0.47L0.418,-0.644C0.427,-0.659 0.435,-0.671 0.442,-0.682C0.449,-0.692 0.455,-0.701 0.461,-0.708C0.468,-0.714 0.475,-0.719 0.482,-0.723C0.49,-0.726 0.499,-0.728 0.509,-0.728C0.527,-0.728 0.542,-0.723 0.553,-0.712C0.565,-0.701 0.571,-0.688 0.571,-0.673C0.571,-0.651 0.558,-0.621 0.533,-0.584L0.392,-0.373L0.544,-0.139C0.558,-0.119 0.568,-0.102 0.574,-0.088C0.58,-0.075 0.583,-0.062 0.583,-0.05C0.583,-0.038 0.58,-0.028 0.575,-0.019C0.569,-0.009 0.561,-0.002 0.551,0.004C0.541,0.009 0.53,0.012 0.517,0.012C0.503,0.012 0.492,0.009 0.482,0.004C0.473,-0.002 0.465,-0.009 0.459,-0.018C0.454,-0.026 0.443,-0.042 0.427,-0.067L0.301,-0.265L0.167,-0.061C0.157,-0.045 0.149,-0.033 0.145,-0.027C0.14,-0.02 0.135,-0.014 0.129,-0.008C0.123,-0.002 0.115,0.003 0.107,0.007C0.098,0.01 0.089,0.012 0.077,0.012C0.06,0.012 0.045,0.007 0.033,-0.004C0.022,-0.015 0.016,-0.03 0.016,-0.051C0.016,-0.075 0.028,-0.104 0.052,-0.139Z" style="fill-rule:nonzero;"/>
        </g>
        <g transform="matrix(126.237,0,0,126.237,323.429,398.079)">
            <path d="M0.543,-0.596L0.385,-0.596L0.385,-0.076C0.385,-0.046 0.378,-0.024 0.365,-0.01C0.351,0.005 0.334,0.012 0.313,0.012C0.292,0.012 0.274,0.005 0.26,-0.01C0.247,-0.024 0.24,-0.047 0.24,-0.076L0.24,-0.596L0.082,-0.596C0.057,-0.596 0.039,-0.602 0.027,-0.613C0.015,-0.623 0.009,-0.638 0.009,-0.656C0.009,-0.674 0.015,-0.689 0.028,-0.7C0.04,-0.71 0.058,-0.716 0.082,-0.716L0.543,-0.716C0.568,-0.716 0.587,-0.71 0.599,-0.699C0.611,-0.688 0.617,-0.674 0.617,-0.656C0.617,-0.638 0.611,-0.623 0.599,-0.613C0.586,-0.602 0.568,-0.596 0.543,-0.596Z" style="fill-rule:nonzero;"/>
        </g>
    </g>
</svg>
